<mxfile host="app.diagrams.net" modified="2024-04-21T21:13:30.621Z" agent="Mozilla/5.0 (X11; Linux x86_64) AppleWebKit/537.36 (KHTML, like Gecko) Chrome/123.0.0.0 Safari/537.36" etag="yT3FT3k6_wYTg3IwbPs8" version="24.2.7" type="device">
  <diagram id="C5RBs43oDa-KdzZeNtuy" name="Page-1">
    <mxGraphModel dx="2954" dy="1102" grid="1" gridSize="10" guides="1" tooltips="1" connect="1" arrows="1" fold="1" page="1" pageScale="1" pageWidth="827" pageHeight="1169" math="0" shadow="0">
      <root>
        <mxCell id="WIyWlLk6GJQsqaUBKTNV-0" />
        <mxCell id="WIyWlLk6GJQsqaUBKTNV-1" parent="WIyWlLk6GJQsqaUBKTNV-0" />
        <mxCell id="HjCag2NHuTA9Ce-JKD27-55" style="edgeStyle=orthogonalEdgeStyle;rounded=0;orthogonalLoop=1;jettySize=auto;html=1;dashed=1;endArrow=open;endFill=0;endSize=12;exitX=1;exitY=0.5;exitDx=0;exitDy=0;" edge="1" parent="WIyWlLk6GJQsqaUBKTNV-1" source="HjCag2NHuTA9Ce-JKD27-14" target="HjCag2NHuTA9Ce-JKD27-10">
          <mxGeometry relative="1" as="geometry">
            <Array as="points">
              <mxPoint x="500" y="223" />
            </Array>
          </mxGeometry>
        </mxCell>
        <mxCell id="zkfFHV4jXpPFQw0GAbJ--0" value="Integrator" style="swimlane;fontStyle=2;align=center;verticalAlign=top;childLayout=stackLayout;horizontal=1;startSize=26;horizontalStack=0;resizeParent=1;resizeLast=0;collapsible=1;marginBottom=0;rounded=0;shadow=0;strokeWidth=1;" parent="WIyWlLk6GJQsqaUBKTNV-1" vertex="1">
          <mxGeometry x="200" y="120" width="200" height="160" as="geometry">
            <mxRectangle x="230" y="140" width="160" height="26" as="alternateBounds" />
          </mxGeometry>
        </mxCell>
        <mxCell id="HjCag2NHuTA9Ce-JKD27-0" value="-IntegratorSettings m_settings" style="text;strokeColor=none;fillColor=none;align=left;verticalAlign=middle;spacingLeft=4;spacingRight=4;overflow=hidden;points=[[0,0.5],[1,0.5]];portConstraint=eastwest;rotatable=0;whiteSpace=wrap;html=1;" vertex="1" parent="zkfFHV4jXpPFQw0GAbJ--0">
          <mxGeometry y="26" width="200" height="24" as="geometry" />
        </mxCell>
        <mxCell id="HjCag2NHuTA9Ce-JKD27-65" value="-Sampler m_sampler" style="text;strokeColor=none;fillColor=none;align=left;verticalAlign=middle;spacingLeft=4;spacingRight=4;overflow=hidden;points=[[0,0.5],[1,0.5]];portConstraint=eastwest;rotatable=0;whiteSpace=wrap;html=1;" vertex="1" parent="zkfFHV4jXpPFQw0GAbJ--0">
          <mxGeometry y="50" width="200" height="20" as="geometry" />
        </mxCell>
        <mxCell id="zkfFHV4jXpPFQw0GAbJ--4" value="" style="line;html=1;strokeWidth=1;align=left;verticalAlign=middle;spacingTop=-1;spacingLeft=3;spacingRight=3;rotatable=0;labelPosition=right;points=[];portConstraint=eastwest;" parent="zkfFHV4jXpPFQw0GAbJ--0" vertex="1">
          <mxGeometry y="70" width="200" height="8" as="geometry" />
        </mxCell>
        <mxCell id="HjCag2NHuTA9Ce-JKD27-7" value="&lt;div&gt;+Integrator(IntegratorSettings&amp;amp;&amp;amp;)&lt;/div&gt;" style="text;strokeColor=none;fillColor=none;align=left;verticalAlign=middle;spacingLeft=4;spacingRight=4;overflow=hidden;points=[[0,0.5],[1,0.5]];portConstraint=eastwest;rotatable=0;whiteSpace=wrap;html=1;" vertex="1" parent="zkfFHV4jXpPFQw0GAbJ--0">
          <mxGeometry y="78" width="200" height="22" as="geometry" />
        </mxCell>
        <mxCell id="HjCag2NHuTA9Ce-JKD27-14" value="&lt;div&gt;&lt;span style=&quot;background-color: initial;&quot;&gt;+render(const Scene&amp;amp;) : QImage&lt;/span&gt;&lt;br&gt;&lt;/div&gt;" style="text;strokeColor=none;fillColor=none;align=left;verticalAlign=middle;spacingLeft=4;spacingRight=4;overflow=hidden;points=[[0,0.5],[1,0.5]];portConstraint=eastwest;rotatable=0;whiteSpace=wrap;html=1;" vertex="1" parent="zkfFHV4jXpPFQw0GAbJ--0">
          <mxGeometry y="100" width="200" height="20" as="geometry" />
        </mxCell>
        <mxCell id="HjCag2NHuTA9Ce-JKD27-5" style="edgeStyle=orthogonalEdgeStyle;rounded=0;orthogonalLoop=1;jettySize=auto;html=1;entryX=0.5;entryY=1;entryDx=0;entryDy=0;endArrow=diamondThin;endFill=1;strokeWidth=1;endSize=12;" edge="1" parent="WIyWlLk6GJQsqaUBKTNV-1" source="HjCag2NHuTA9Ce-JKD27-2" target="zkfFHV4jXpPFQw0GAbJ--0">
          <mxGeometry relative="1" as="geometry">
            <Array as="points">
              <mxPoint x="160" y="300" />
              <mxPoint x="300" y="300" />
            </Array>
          </mxGeometry>
        </mxCell>
        <mxCell id="HjCag2NHuTA9Ce-JKD27-2" value="IntegratorSettings" style="swimlane;fontStyle=2;align=center;verticalAlign=top;childLayout=stackLayout;horizontal=1;startSize=26;horizontalStack=0;resizeParent=1;resizeLast=0;collapsible=1;marginBottom=0;rounded=0;shadow=0;strokeWidth=1;" vertex="1" parent="WIyWlLk6GJQsqaUBKTNV-1">
          <mxGeometry x="80" y="360" width="160" height="120" as="geometry">
            <mxRectangle x="230" y="140" width="160" height="26" as="alternateBounds" />
          </mxGeometry>
        </mxCell>
        <mxCell id="HjCag2NHuTA9Ce-JKD27-3" value="+QSize size" style="text;strokeColor=none;fillColor=none;align=left;verticalAlign=middle;spacingLeft=4;spacingRight=4;overflow=hidden;points=[[0,0.5],[1,0.5]];portConstraint=eastwest;rotatable=0;whiteSpace=wrap;html=1;" vertex="1" parent="HjCag2NHuTA9Ce-JKD27-2">
          <mxGeometry y="26" width="160" height="24" as="geometry" />
        </mxCell>
        <mxCell id="HjCag2NHuTA9Ce-JKD27-9" value="+quint64 samples" style="text;strokeColor=none;fillColor=none;align=left;verticalAlign=middle;spacingLeft=4;spacingRight=4;overflow=hidden;points=[[0,0.5],[1,0.5]];portConstraint=eastwest;rotatable=0;whiteSpace=wrap;html=1;" vertex="1" parent="HjCag2NHuTA9Ce-JKD27-2">
          <mxGeometry y="50" width="160" height="24" as="geometry" />
        </mxCell>
        <mxCell id="HjCag2NHuTA9Ce-JKD27-4" value="" style="line;html=1;strokeWidth=1;align=left;verticalAlign=middle;spacingTop=-1;spacingLeft=3;spacingRight=3;rotatable=0;labelPosition=right;points=[];portConstraint=eastwest;" vertex="1" parent="HjCag2NHuTA9Ce-JKD27-2">
          <mxGeometry y="74" width="160" height="8" as="geometry" />
        </mxCell>
        <mxCell id="HjCag2NHuTA9Ce-JKD27-10" value="Scene" style="swimlane;fontStyle=2;align=center;verticalAlign=top;childLayout=stackLayout;horizontal=1;startSize=26;horizontalStack=0;resizeParent=1;resizeLast=0;collapsible=1;marginBottom=0;rounded=0;shadow=0;strokeWidth=1;" vertex="1" parent="WIyWlLk6GJQsqaUBKTNV-1">
          <mxGeometry x="360" y="360" width="280" height="132" as="geometry">
            <mxRectangle x="230" y="140" width="160" height="26" as="alternateBounds" />
          </mxGeometry>
        </mxCell>
        <mxCell id="HjCag2NHuTA9Ce-JKD27-11" value="-vector&amp;lt;Sphere&amp;gt; m_objects" style="text;strokeColor=none;fillColor=none;align=left;verticalAlign=middle;spacingLeft=4;spacingRight=4;overflow=hidden;points=[[0,0.5],[1,0.5]];portConstraint=eastwest;rotatable=0;whiteSpace=wrap;html=1;" vertex="1" parent="HjCag2NHuTA9Ce-JKD27-10">
          <mxGeometry y="26" width="280" height="24" as="geometry" />
        </mxCell>
        <mxCell id="HjCag2NHuTA9Ce-JKD27-12" value="-QVector3D camera" style="text;strokeColor=none;fillColor=none;align=left;verticalAlign=middle;spacingLeft=4;spacingRight=4;overflow=hidden;points=[[0,0.5],[1,0.5]];portConstraint=eastwest;rotatable=0;whiteSpace=wrap;html=1;" vertex="1" parent="HjCag2NHuTA9Ce-JKD27-10">
          <mxGeometry y="50" width="280" height="20" as="geometry" />
        </mxCell>
        <mxCell id="HjCag2NHuTA9Ce-JKD27-13" value="" style="line;html=1;strokeWidth=1;align=left;verticalAlign=middle;spacingTop=-1;spacingLeft=3;spacingRight=3;rotatable=0;labelPosition=right;points=[];portConstraint=eastwest;" vertex="1" parent="HjCag2NHuTA9Ce-JKD27-10">
          <mxGeometry y="70" width="280" height="8" as="geometry" />
        </mxCell>
        <mxCell id="HjCag2NHuTA9Ce-JKD27-15" value="&lt;div&gt;&lt;span style=&quot;background-color: initial;&quot;&gt;+Scene(&lt;/span&gt;&lt;span style=&quot;background-color: initial;&quot;&gt;vector&amp;lt;Primitive&amp;gt;&lt;/span&gt;&lt;span style=&quot;background-color: initial;&quot;&gt;&amp;amp;&amp;amp;, QVector3D)&lt;/span&gt;&lt;/div&gt;" style="text;strokeColor=none;fillColor=none;align=left;verticalAlign=middle;spacingLeft=4;spacingRight=4;overflow=hidden;points=[[0,0.5],[1,0.5]];portConstraint=eastwest;rotatable=0;whiteSpace=wrap;html=1;" vertex="1" parent="HjCag2NHuTA9Ce-JKD27-10">
          <mxGeometry y="78" width="280" height="18" as="geometry" />
        </mxCell>
        <mxCell id="HjCag2NHuTA9Ce-JKD27-56" value="&lt;div&gt;&lt;span style=&quot;background-color: initial;&quot;&gt;+intersect(const&amp;nbsp;&lt;/span&gt;&lt;span style=&quot;background-color: initial;&quot;&gt;Ray&amp;amp;) : SurfaceInteraction&lt;/span&gt;&lt;/div&gt;" style="text;strokeColor=none;fillColor=none;align=left;verticalAlign=middle;spacingLeft=4;spacingRight=4;overflow=hidden;points=[[0,0.5],[1,0.5]];portConstraint=eastwest;rotatable=0;whiteSpace=wrap;html=1;" vertex="1" parent="HjCag2NHuTA9Ce-JKD27-10">
          <mxGeometry y="96" width="280" height="18" as="geometry" />
        </mxCell>
        <mxCell id="HjCag2NHuTA9Ce-JKD27-121" value="&lt;div&gt;&lt;span style=&quot;background-color: initial;&quot;&gt;+camera(&lt;/span&gt;&lt;span style=&quot;background-color: initial;&quot;&gt;) : QVector3D&lt;/span&gt;&lt;/div&gt;" style="text;strokeColor=none;fillColor=none;align=left;verticalAlign=middle;spacingLeft=4;spacingRight=4;overflow=hidden;points=[[0,0.5],[1,0.5]];portConstraint=eastwest;rotatable=0;whiteSpace=wrap;html=1;" vertex="1" parent="HjCag2NHuTA9Ce-JKD27-10">
          <mxGeometry y="114" width="280" height="18" as="geometry" />
        </mxCell>
        <mxCell id="HjCag2NHuTA9Ce-JKD27-116" style="edgeStyle=orthogonalEdgeStyle;rounded=0;orthogonalLoop=1;jettySize=auto;html=1;entryX=0.5;entryY=1;entryDx=0;entryDy=0;endArrow=block;endFill=0;endSize=12;" edge="1" parent="WIyWlLk6GJQsqaUBKTNV-1" source="HjCag2NHuTA9Ce-JKD27-17" target="HjCag2NHuTA9Ce-JKD27-78">
          <mxGeometry relative="1" as="geometry">
            <Array as="points">
              <mxPoint x="680" y="760" />
              <mxPoint x="500" y="760" />
            </Array>
          </mxGeometry>
        </mxCell>
        <mxCell id="HjCag2NHuTA9Ce-JKD27-17" value="Sphere" style="swimlane;fontStyle=2;align=center;verticalAlign=top;childLayout=stackLayout;horizontal=1;startSize=26;horizontalStack=0;resizeParent=1;resizeLast=0;collapsible=1;marginBottom=0;rounded=0;shadow=0;strokeWidth=1;" vertex="1" parent="WIyWlLk6GJQsqaUBKTNV-1">
          <mxGeometry x="560" y="800" width="320" height="120" as="geometry">
            <mxRectangle x="230" y="140" width="160" height="26" as="alternateBounds" />
          </mxGeometry>
        </mxCell>
        <mxCell id="HjCag2NHuTA9Ce-JKD27-18" value="-QVector3D m_position" style="text;strokeColor=none;fillColor=none;align=left;verticalAlign=middle;spacingLeft=4;spacingRight=4;overflow=hidden;points=[[0,0.5],[1,0.5]];portConstraint=eastwest;rotatable=0;whiteSpace=wrap;html=1;" vertex="1" parent="HjCag2NHuTA9Ce-JKD27-17">
          <mxGeometry y="26" width="320" height="24" as="geometry" />
        </mxCell>
        <mxCell id="HjCag2NHuTA9Ce-JKD27-24" value="-float m_radius" style="text;strokeColor=none;fillColor=none;align=left;verticalAlign=middle;spacingLeft=4;spacingRight=4;overflow=hidden;points=[[0,0.5],[1,0.5]];portConstraint=eastwest;rotatable=0;whiteSpace=wrap;html=1;" vertex="1" parent="HjCag2NHuTA9Ce-JKD27-17">
          <mxGeometry y="50" width="320" height="20" as="geometry" />
        </mxCell>
        <mxCell id="HjCag2NHuTA9Ce-JKD27-20" value="" style="line;html=1;strokeWidth=1;align=left;verticalAlign=middle;spacingTop=-1;spacingLeft=3;spacingRight=3;rotatable=0;labelPosition=right;points=[];portConstraint=eastwest;" vertex="1" parent="HjCag2NHuTA9Ce-JKD27-17">
          <mxGeometry y="70" width="320" height="8" as="geometry" />
        </mxCell>
        <mxCell id="HjCag2NHuTA9Ce-JKD27-21" value="&lt;div&gt;&lt;span style=&quot;background-color: initial;&quot;&gt;+Sphere(&lt;/span&gt;&lt;span style=&quot;background-color: initial;&quot;&gt;QVector3D&lt;/span&gt;&lt;span style=&quot;background-color: initial;&quot;&gt;,&amp;nbsp;&lt;/span&gt;QVector3D&lt;span style=&quot;background-color: initial;&quot;&gt;,&amp;nbsp;&lt;/span&gt;QVector3D&lt;span style=&quot;background-color: initial;&quot;&gt;, float)&amp;nbsp;&lt;/span&gt;&lt;/div&gt;" style="text;strokeColor=none;fillColor=none;align=left;verticalAlign=middle;spacingLeft=4;spacingRight=4;overflow=hidden;points=[[0,0.5],[1,0.5]];portConstraint=eastwest;rotatable=0;whiteSpace=wrap;html=1;" vertex="1" parent="HjCag2NHuTA9Ce-JKD27-17">
          <mxGeometry y="78" width="320" height="20" as="geometry" />
        </mxCell>
        <mxCell id="HjCag2NHuTA9Ce-JKD27-118" value="&lt;div&gt;&lt;span style=&quot;background-color: initial;&quot;&gt;+intersect(const Ray&amp;amp;&lt;/span&gt;&lt;span style=&quot;background-color: initial;&quot;&gt;) : expected&amp;lt;SurfaceInteraction&amp;gt;&amp;nbsp;&lt;/span&gt;&lt;/div&gt;" style="text;strokeColor=none;fillColor=none;align=left;verticalAlign=middle;spacingLeft=4;spacingRight=4;overflow=hidden;points=[[0,0.5],[1,0.5]];portConstraint=eastwest;rotatable=0;whiteSpace=wrap;html=1;" vertex="1" parent="HjCag2NHuTA9Ce-JKD27-17">
          <mxGeometry y="98" width="320" height="20" as="geometry" />
        </mxCell>
        <mxCell id="HjCag2NHuTA9Ce-JKD27-31" value="Ray" style="swimlane;fontStyle=2;align=center;verticalAlign=top;childLayout=stackLayout;horizontal=1;startSize=26;horizontalStack=0;resizeParent=1;resizeLast=0;collapsible=1;marginBottom=0;rounded=0;shadow=0;strokeWidth=1;" vertex="1" parent="WIyWlLk6GJQsqaUBKTNV-1">
          <mxGeometry x="80" y="560" width="200" height="160" as="geometry">
            <mxRectangle x="230" y="140" width="160" height="26" as="alternateBounds" />
          </mxGeometry>
        </mxCell>
        <mxCell id="HjCag2NHuTA9Ce-JKD27-32" value="-QVector3D m_origin" style="text;strokeColor=none;fillColor=none;align=left;verticalAlign=middle;spacingLeft=4;spacingRight=4;overflow=hidden;points=[[0,0.5],[1,0.5]];portConstraint=eastwest;rotatable=0;whiteSpace=wrap;html=1;" vertex="1" parent="HjCag2NHuTA9Ce-JKD27-31">
          <mxGeometry y="26" width="200" height="24" as="geometry" />
        </mxCell>
        <mxCell id="HjCag2NHuTA9Ce-JKD27-54" value="-QVector3D m_direction" style="text;strokeColor=none;fillColor=none;align=left;verticalAlign=middle;spacingLeft=4;spacingRight=4;overflow=hidden;points=[[0,0.5],[1,0.5]];portConstraint=eastwest;rotatable=0;whiteSpace=wrap;html=1;" vertex="1" parent="HjCag2NHuTA9Ce-JKD27-31">
          <mxGeometry y="50" width="200" height="24" as="geometry" />
        </mxCell>
        <mxCell id="HjCag2NHuTA9Ce-JKD27-36" value="" style="line;html=1;strokeWidth=1;align=left;verticalAlign=middle;spacingTop=-1;spacingLeft=3;spacingRight=3;rotatable=0;labelPosition=right;points=[];portConstraint=eastwest;" vertex="1" parent="HjCag2NHuTA9Ce-JKD27-31">
          <mxGeometry y="74" width="200" height="8" as="geometry" />
        </mxCell>
        <mxCell id="HjCag2NHuTA9Ce-JKD27-37" value="&lt;div&gt;&lt;span style=&quot;background-color: initial;&quot;&gt;+Ray(&lt;/span&gt;&lt;span style=&quot;background-color: initial;&quot;&gt;QVector3D&lt;/span&gt;&lt;span style=&quot;background-color: initial;&quot;&gt;&amp;amp;&amp;amp;, QVector&amp;amp;&amp;amp;)&amp;nbsp;&lt;/span&gt;&lt;/div&gt;" style="text;strokeColor=none;fillColor=none;align=left;verticalAlign=middle;spacingLeft=4;spacingRight=4;overflow=hidden;points=[[0,0.5],[1,0.5]];portConstraint=eastwest;rotatable=0;whiteSpace=wrap;html=1;" vertex="1" parent="HjCag2NHuTA9Ce-JKD27-31">
          <mxGeometry y="82" width="200" height="20" as="geometry" />
        </mxCell>
        <mxCell id="HjCag2NHuTA9Ce-JKD27-38" value="&lt;div&gt;&lt;span style=&quot;background-color: initial;&quot;&gt;+position(&lt;/span&gt;&lt;span style=&quot;background-color: initial;&quot;&gt;) : QVector3D&lt;/span&gt;&lt;/div&gt;" style="text;strokeColor=none;fillColor=none;align=left;verticalAlign=middle;spacingLeft=4;spacingRight=4;overflow=hidden;points=[[0,0.5],[1,0.5]];portConstraint=eastwest;rotatable=0;whiteSpace=wrap;html=1;" vertex="1" parent="HjCag2NHuTA9Ce-JKD27-31">
          <mxGeometry y="102" width="200" height="20" as="geometry" />
        </mxCell>
        <mxCell id="HjCag2NHuTA9Ce-JKD27-39" value="&lt;div&gt;&lt;span style=&quot;background-color: initial;&quot;&gt;+direction(&lt;/span&gt;&lt;span style=&quot;background-color: initial;&quot;&gt;) : QVector3D&lt;/span&gt;&lt;/div&gt;" style="text;strokeColor=none;fillColor=none;align=left;verticalAlign=middle;spacingLeft=4;spacingRight=4;overflow=hidden;points=[[0,0.5],[1,0.5]];portConstraint=eastwest;rotatable=0;whiteSpace=wrap;html=1;" vertex="1" parent="HjCag2NHuTA9Ce-JKD27-31">
          <mxGeometry y="122" width="200" height="20" as="geometry" />
        </mxCell>
        <mxCell id="HjCag2NHuTA9Ce-JKD27-57" value="Sampler" style="swimlane;fontStyle=2;align=center;verticalAlign=top;childLayout=stackLayout;horizontal=1;startSize=26;horizontalStack=0;resizeParent=1;resizeLast=0;collapsible=1;marginBottom=0;rounded=0;shadow=0;strokeWidth=1;" vertex="1" parent="WIyWlLk6GJQsqaUBKTNV-1">
          <mxGeometry x="680" y="360" width="200" height="120" as="geometry">
            <mxRectangle x="230" y="140" width="160" height="26" as="alternateBounds" />
          </mxGeometry>
        </mxCell>
        <mxCell id="HjCag2NHuTA9Ce-JKD27-58" value="-QRandomGenerator m_generator" style="text;strokeColor=none;fillColor=none;align=left;verticalAlign=middle;spacingLeft=4;spacingRight=4;overflow=hidden;points=[[0,0.5],[1,0.5]];portConstraint=eastwest;rotatable=0;whiteSpace=wrap;html=1;" vertex="1" parent="HjCag2NHuTA9Ce-JKD27-57">
          <mxGeometry y="26" width="200" height="24" as="geometry" />
        </mxCell>
        <mxCell id="HjCag2NHuTA9Ce-JKD27-60" value="" style="line;html=1;strokeWidth=1;align=left;verticalAlign=middle;spacingTop=-1;spacingLeft=3;spacingRight=3;rotatable=0;labelPosition=right;points=[];portConstraint=eastwest;" vertex="1" parent="HjCag2NHuTA9Ce-JKD27-57">
          <mxGeometry y="50" width="200" height="8" as="geometry" />
        </mxCell>
        <mxCell id="HjCag2NHuTA9Ce-JKD27-61" value="randomf() : QPointF&amp;nbsp;" style="text;strokeColor=none;fillColor=none;align=left;verticalAlign=middle;spacingLeft=4;spacingRight=4;overflow=hidden;points=[[0,0.5],[1,0.5]];portConstraint=eastwest;rotatable=0;whiteSpace=wrap;html=1;" vertex="1" parent="HjCag2NHuTA9Ce-JKD27-57">
          <mxGeometry y="58" width="200" height="24" as="geometry" />
        </mxCell>
        <mxCell id="HjCag2NHuTA9Ce-JKD27-63" value="random() : QPoint&amp;nbsp;" style="text;strokeColor=none;fillColor=none;align=left;verticalAlign=middle;spacingLeft=4;spacingRight=4;overflow=hidden;points=[[0,0.5],[1,0.5]];portConstraint=eastwest;rotatable=0;whiteSpace=wrap;html=1;" vertex="1" parent="HjCag2NHuTA9Ce-JKD27-57">
          <mxGeometry y="82" width="200" height="24" as="geometry" />
        </mxCell>
        <mxCell id="HjCag2NHuTA9Ce-JKD27-66" style="edgeStyle=orthogonalEdgeStyle;rounded=0;orthogonalLoop=1;jettySize=auto;html=1;endArrow=none;endFill=0;startArrow=diamondThin;startFill=1;endSize=10;startSize=12;" edge="1" parent="WIyWlLk6GJQsqaUBKTNV-1" source="HjCag2NHuTA9Ce-JKD27-65" target="HjCag2NHuTA9Ce-JKD27-57">
          <mxGeometry relative="1" as="geometry" />
        </mxCell>
        <mxCell id="HjCag2NHuTA9Ce-JKD27-115" style="edgeStyle=orthogonalEdgeStyle;rounded=0;orthogonalLoop=1;jettySize=auto;html=1;entryX=0.5;entryY=1;entryDx=0;entryDy=0;endArrow=block;endFill=0;endSize=12;" edge="1" parent="WIyWlLk6GJQsqaUBKTNV-1" source="HjCag2NHuTA9Ce-JKD27-67" target="HjCag2NHuTA9Ce-JKD27-78">
          <mxGeometry relative="1" as="geometry">
            <Array as="points">
              <mxPoint x="325" y="760" />
              <mxPoint x="500" y="760" />
            </Array>
          </mxGeometry>
        </mxCell>
        <mxCell id="HjCag2NHuTA9Ce-JKD27-67" value="Triangle" style="swimlane;fontStyle=2;align=center;verticalAlign=top;childLayout=stackLayout;horizontal=1;startSize=26;horizontalStack=0;resizeParent=1;resizeLast=0;collapsible=1;marginBottom=0;rounded=0;shadow=0;strokeWidth=1;" vertex="1" parent="WIyWlLk6GJQsqaUBKTNV-1">
          <mxGeometry x="130" y="800" width="390" height="98" as="geometry">
            <mxRectangle x="230" y="140" width="160" height="26" as="alternateBounds" />
          </mxGeometry>
        </mxCell>
        <mxCell id="HjCag2NHuTA9Ce-JKD27-68" value="-QVector3D[3] m_vertices" style="text;strokeColor=none;fillColor=none;align=left;verticalAlign=middle;spacingLeft=4;spacingRight=4;overflow=hidden;points=[[0,0.5],[1,0.5]];portConstraint=eastwest;rotatable=0;whiteSpace=wrap;html=1;" vertex="1" parent="HjCag2NHuTA9Ce-JKD27-67">
          <mxGeometry y="26" width="390" height="24" as="geometry" />
        </mxCell>
        <mxCell id="HjCag2NHuTA9Ce-JKD27-72" value="" style="line;html=1;strokeWidth=1;align=left;verticalAlign=middle;spacingTop=-1;spacingLeft=3;spacingRight=3;rotatable=0;labelPosition=right;points=[];portConstraint=eastwest;" vertex="1" parent="HjCag2NHuTA9Ce-JKD27-67">
          <mxGeometry y="50" width="390" height="8" as="geometry" />
        </mxCell>
        <mxCell id="HjCag2NHuTA9Ce-JKD27-73" value="&lt;div&gt;&lt;span style=&quot;background-color: initial;&quot;&gt;+Triangle(&lt;/span&gt;&lt;span style=&quot;background-color: initial;&quot;&gt;QVector3D&lt;/span&gt;&lt;span style=&quot;background-color: initial;&quot;&gt;,&amp;nbsp;&lt;/span&gt;QVector3D&lt;span style=&quot;background-color: initial;&quot;&gt;,&amp;nbsp;&lt;/span&gt;QVector3D,&amp;nbsp;&lt;span style=&quot;background-color: initial;&quot;&gt;QVector3D,&amp;nbsp;&lt;/span&gt;&lt;span style=&quot;background-color: initial;&quot;&gt;QVector3D&lt;/span&gt;&lt;span style=&quot;background-color: initial;&quot;&gt;)&amp;nbsp;&lt;/span&gt;&lt;/div&gt;" style="text;strokeColor=none;fillColor=none;align=left;verticalAlign=middle;spacingLeft=4;spacingRight=4;overflow=hidden;points=[[0,0.5],[1,0.5]];portConstraint=eastwest;rotatable=0;whiteSpace=wrap;html=1;" vertex="1" parent="HjCag2NHuTA9Ce-JKD27-67">
          <mxGeometry y="58" width="390" height="20" as="geometry" />
        </mxCell>
        <mxCell id="HjCag2NHuTA9Ce-JKD27-117" value="&lt;div&gt;&lt;span style=&quot;background-color: initial;&quot;&gt;+intersect(const Ray&amp;amp;&lt;/span&gt;&lt;span style=&quot;background-color: initial;&quot;&gt;) : expected&amp;lt;SurfaceInteraction&amp;gt;&amp;nbsp;&lt;/span&gt;&lt;/div&gt;" style="text;strokeColor=none;fillColor=none;align=left;verticalAlign=middle;spacingLeft=4;spacingRight=4;overflow=hidden;points=[[0,0.5],[1,0.5]];portConstraint=eastwest;rotatable=0;whiteSpace=wrap;html=1;" vertex="1" parent="HjCag2NHuTA9Ce-JKD27-67">
          <mxGeometry y="78" width="390" height="20" as="geometry" />
        </mxCell>
        <mxCell id="HjCag2NHuTA9Ce-JKD27-114" style="edgeStyle=orthogonalEdgeStyle;rounded=0;orthogonalLoop=1;jettySize=auto;html=1;entryX=0.5;entryY=1;entryDx=0;entryDy=0;endArrow=diamondThin;endFill=0;startSize=7;endSize=12;" edge="1" parent="WIyWlLk6GJQsqaUBKTNV-1" source="HjCag2NHuTA9Ce-JKD27-78" target="HjCag2NHuTA9Ce-JKD27-10">
          <mxGeometry relative="1" as="geometry" />
        </mxCell>
        <mxCell id="HjCag2NHuTA9Ce-JKD27-78" value="Primitive" style="swimlane;fontStyle=2;align=center;verticalAlign=top;childLayout=stackLayout;horizontal=1;startSize=26;horizontalStack=0;resizeParent=1;resizeLast=0;collapsible=1;marginBottom=0;rounded=0;shadow=0;strokeWidth=1;" vertex="1" parent="WIyWlLk6GJQsqaUBKTNV-1">
          <mxGeometry x="400" y="560" width="200" height="160" as="geometry">
            <mxRectangle x="230" y="140" width="160" height="26" as="alternateBounds" />
          </mxGeometry>
        </mxCell>
        <mxCell id="HjCag2NHuTA9Ce-JKD27-80" value="-QVector3D m_color" style="text;strokeColor=none;fillColor=none;align=left;verticalAlign=middle;spacingLeft=4;spacingRight=4;overflow=hidden;points=[[0,0.5],[1,0.5]];portConstraint=eastwest;rotatable=0;whiteSpace=wrap;html=1;" vertex="1" parent="HjCag2NHuTA9Ce-JKD27-78">
          <mxGeometry y="26" width="200" height="24" as="geometry" />
        </mxCell>
        <mxCell id="HjCag2NHuTA9Ce-JKD27-81" value="-QVector3D&amp;nbsp;m_emission" style="text;strokeColor=none;fillColor=none;align=left;verticalAlign=middle;spacingLeft=4;spacingRight=4;overflow=hidden;points=[[0,0.5],[1,0.5]];portConstraint=eastwest;rotatable=0;whiteSpace=wrap;html=1;" vertex="1" parent="HjCag2NHuTA9Ce-JKD27-78">
          <mxGeometry y="50" width="200" height="20" as="geometry" />
        </mxCell>
        <mxCell id="HjCag2NHuTA9Ce-JKD27-83" value="" style="line;html=1;strokeWidth=1;align=left;verticalAlign=middle;spacingTop=-1;spacingLeft=3;spacingRight=3;rotatable=0;labelPosition=right;points=[];portConstraint=eastwest;" vertex="1" parent="HjCag2NHuTA9Ce-JKD27-78">
          <mxGeometry y="70" width="200" height="8" as="geometry" />
        </mxCell>
        <mxCell id="HjCag2NHuTA9Ce-JKD27-84" value="&lt;div&gt;&lt;span style=&quot;background-color: initial;&quot;&gt;+Primitive(QVector3D, QVector3D&lt;/span&gt;&lt;span style=&quot;background-color: initial;&quot;&gt;)&amp;nbsp;&lt;/span&gt;&lt;/div&gt;" style="text;strokeColor=none;fillColor=none;align=left;verticalAlign=middle;spacingLeft=4;spacingRight=4;overflow=hidden;points=[[0,0.5],[1,0.5]];portConstraint=eastwest;rotatable=0;whiteSpace=wrap;html=1;" vertex="1" parent="HjCag2NHuTA9Ce-JKD27-78">
          <mxGeometry y="78" width="200" height="20" as="geometry" />
        </mxCell>
        <mxCell id="HjCag2NHuTA9Ce-JKD27-111" value="&lt;div&gt;&lt;span style=&quot;background-color: initial;&quot;&gt;+intersect(&lt;/span&gt;&lt;span style=&quot;background-color: initial;&quot;&gt;) = 0&amp;nbsp;&lt;/span&gt;&lt;/div&gt;" style="text;strokeColor=none;fillColor=none;align=left;verticalAlign=middle;spacingLeft=4;spacingRight=4;overflow=hidden;points=[[0,0.5],[1,0.5]];portConstraint=eastwest;rotatable=0;whiteSpace=wrap;html=1;" vertex="1" parent="HjCag2NHuTA9Ce-JKD27-78">
          <mxGeometry y="98" width="200" height="20" as="geometry" />
        </mxCell>
        <mxCell id="HjCag2NHuTA9Ce-JKD27-86" value="&lt;div&gt;&lt;span style=&quot;background-color: initial;&quot;&gt;+color(&lt;/span&gt;&lt;span style=&quot;background-color: initial;&quot;&gt;) :&amp;nbsp;&lt;/span&gt;&lt;span style=&quot;background-color: initial;&quot;&gt;QVector3D&lt;/span&gt;&lt;/div&gt;" style="text;strokeColor=none;fillColor=none;align=left;verticalAlign=middle;spacingLeft=4;spacingRight=4;overflow=hidden;points=[[0,0.5],[1,0.5]];portConstraint=eastwest;rotatable=0;whiteSpace=wrap;html=1;" vertex="1" parent="HjCag2NHuTA9Ce-JKD27-78">
          <mxGeometry y="118" width="200" height="20" as="geometry" />
        </mxCell>
        <mxCell id="HjCag2NHuTA9Ce-JKD27-87" value="&lt;div&gt;&lt;span style=&quot;background-color: initial;&quot;&gt;+emission(&lt;/span&gt;&lt;span style=&quot;background-color: initial;&quot;&gt;) :&amp;nbsp;&lt;/span&gt;&lt;span style=&quot;background-color: initial;&quot;&gt;QVector3D&lt;/span&gt;&lt;/div&gt;" style="text;strokeColor=none;fillColor=none;align=left;verticalAlign=middle;spacingLeft=4;spacingRight=4;overflow=hidden;points=[[0,0.5],[1,0.5]];portConstraint=eastwest;rotatable=0;whiteSpace=wrap;html=1;" vertex="1" parent="HjCag2NHuTA9Ce-JKD27-78">
          <mxGeometry y="138" width="200" height="20" as="geometry" />
        </mxCell>
        <mxCell id="HjCag2NHuTA9Ce-JKD27-119" style="edgeStyle=orthogonalEdgeStyle;rounded=0;orthogonalLoop=1;jettySize=auto;html=1;dashed=1;endArrow=open;endFill=0;endSize=12;" edge="1" parent="WIyWlLk6GJQsqaUBKTNV-1" source="HjCag2NHuTA9Ce-JKD27-89" target="HjCag2NHuTA9Ce-JKD27-67">
          <mxGeometry relative="1" as="geometry">
            <Array as="points">
              <mxPoint x="560" y="960" />
              <mxPoint x="325" y="960" />
            </Array>
          </mxGeometry>
        </mxCell>
        <mxCell id="HjCag2NHuTA9Ce-JKD27-120" style="edgeStyle=orthogonalEdgeStyle;rounded=0;orthogonalLoop=1;jettySize=auto;html=1;startSize=12;endSize=12;endArrow=open;endFill=0;dashed=1;" edge="1" parent="WIyWlLk6GJQsqaUBKTNV-1" source="HjCag2NHuTA9Ce-JKD27-89" target="HjCag2NHuTA9Ce-JKD27-17">
          <mxGeometry relative="1" as="geometry">
            <Array as="points">
              <mxPoint x="560" y="960" />
              <mxPoint x="720" y="960" />
            </Array>
          </mxGeometry>
        </mxCell>
        <mxCell id="HjCag2NHuTA9Ce-JKD27-89" value="SurfaceInteraction" style="swimlane;fontStyle=2;align=center;verticalAlign=top;childLayout=stackLayout;horizontal=1;startSize=26;horizontalStack=0;resizeParent=1;resizeLast=0;collapsible=1;marginBottom=0;rounded=0;shadow=0;strokeWidth=1;" vertex="1" parent="WIyWlLk6GJQsqaUBKTNV-1">
          <mxGeometry x="400" y="1000" width="320" height="160" as="geometry">
            <mxRectangle x="230" y="140" width="160" height="26" as="alternateBounds" />
          </mxGeometry>
        </mxCell>
        <mxCell id="HjCag2NHuTA9Ce-JKD27-90" value="-const Primitive&amp;amp; m_primitive" style="text;strokeColor=none;fillColor=none;align=left;verticalAlign=middle;spacingLeft=4;spacingRight=4;overflow=hidden;points=[[0,0.5],[1,0.5]];portConstraint=eastwest;rotatable=0;whiteSpace=wrap;html=1;" vertex="1" parent="HjCag2NHuTA9Ce-JKD27-89">
          <mxGeometry y="26" width="320" height="24" as="geometry" />
        </mxCell>
        <mxCell id="HjCag2NHuTA9Ce-JKD27-91" value="-const QVector3D&amp;amp; m_point" style="text;strokeColor=none;fillColor=none;align=left;verticalAlign=middle;spacingLeft=4;spacingRight=4;overflow=hidden;points=[[0,0.5],[1,0.5]];portConstraint=eastwest;rotatable=0;whiteSpace=wrap;html=1;" vertex="1" parent="HjCag2NHuTA9Ce-JKD27-89">
          <mxGeometry y="50" width="320" height="24" as="geometry" />
        </mxCell>
        <mxCell id="HjCag2NHuTA9Ce-JKD27-94" value="" style="line;html=1;strokeWidth=1;align=left;verticalAlign=middle;spacingTop=-1;spacingLeft=3;spacingRight=3;rotatable=0;labelPosition=right;points=[];portConstraint=eastwest;" vertex="1" parent="HjCag2NHuTA9Ce-JKD27-89">
          <mxGeometry y="74" width="320" height="8" as="geometry" />
        </mxCell>
        <mxCell id="HjCag2NHuTA9Ce-JKD27-95" value="&lt;div&gt;&lt;span style=&quot;background-color: initial;&quot;&gt;+SurfaceInteraction(const Primitive&amp;amp;, const&amp;nbsp;&lt;/span&gt;&lt;span style=&quot;background-color: initial;&quot;&gt;QVector3D&amp;amp;&lt;/span&gt;&lt;span style=&quot;background-color: initial;&quot;&gt;)&amp;nbsp;&lt;/span&gt;&lt;/div&gt;" style="text;strokeColor=none;fillColor=none;align=left;verticalAlign=middle;spacingLeft=4;spacingRight=4;overflow=hidden;points=[[0,0.5],[1,0.5]];portConstraint=eastwest;rotatable=0;whiteSpace=wrap;html=1;" vertex="1" parent="HjCag2NHuTA9Ce-JKD27-89">
          <mxGeometry y="82" width="320" height="20" as="geometry" />
        </mxCell>
        <mxCell id="HjCag2NHuTA9Ce-JKD27-96" value="&lt;div&gt;&lt;span style=&quot;background-color: initial;&quot;&gt;+primitive(&lt;/span&gt;&lt;span style=&quot;background-color: initial;&quot;&gt;) : const Primitive&amp;amp;&lt;/span&gt;&lt;/div&gt;" style="text;strokeColor=none;fillColor=none;align=left;verticalAlign=middle;spacingLeft=4;spacingRight=4;overflow=hidden;points=[[0,0.5],[1,0.5]];portConstraint=eastwest;rotatable=0;whiteSpace=wrap;html=1;" vertex="1" parent="HjCag2NHuTA9Ce-JKD27-89">
          <mxGeometry y="102" width="320" height="20" as="geometry" />
        </mxCell>
        <mxCell id="HjCag2NHuTA9Ce-JKD27-97" value="&lt;div&gt;&lt;span style=&quot;background-color: initial;&quot;&gt;+point(&lt;/span&gt;&lt;span style=&quot;background-color: initial;&quot;&gt;) : const QVector3D&amp;amp;&lt;/span&gt;&lt;/div&gt;" style="text;strokeColor=none;fillColor=none;align=left;verticalAlign=middle;spacingLeft=4;spacingRight=4;overflow=hidden;points=[[0,0.5],[1,0.5]];portConstraint=eastwest;rotatable=0;whiteSpace=wrap;html=1;" vertex="1" parent="HjCag2NHuTA9Ce-JKD27-89">
          <mxGeometry y="122" width="320" height="20" as="geometry" />
        </mxCell>
        <mxCell id="HjCag2NHuTA9Ce-JKD27-112" style="edgeStyle=orthogonalEdgeStyle;rounded=0;orthogonalLoop=1;jettySize=auto;html=1;dashed=1;endArrow=open;endFill=0;endSize=12;exitX=0.535;exitY=0;exitDx=0;exitDy=0;exitPerimeter=0;entryX=0;entryY=0.5;entryDx=0;entryDy=0;" edge="1" parent="WIyWlLk6GJQsqaUBKTNV-1" source="HjCag2NHuTA9Ce-JKD27-31" target="HjCag2NHuTA9Ce-JKD27-12">
          <mxGeometry relative="1" as="geometry">
            <mxPoint x="340" y="580" as="sourcePoint" />
            <mxPoint x="490" y="720" as="targetPoint" />
            <Array as="points">
              <mxPoint x="187" y="520" />
              <mxPoint x="300" y="520" />
              <mxPoint x="300" y="420" />
            </Array>
          </mxGeometry>
        </mxCell>
      </root>
    </mxGraphModel>
  </diagram>
</mxfile>
